<svg xmlns="http://www.w3.org/2000/svg" viewBox="-6 0 142 128">
  <rect width="128" height="128" rx="24" fill="#fff8ef"/>
  <path fill="#f13a1f" d="M48 29c7 18 20 24 38 16 6-3 12 1 15 8l3 10c4 13 15 20 29 23 3 .6 5 3 5 6 0 4-3 7-7 7H53c-8 0-14-2-20-7L17 78c-4-3-4-9 0-12 11-9 20-21 27-36 1-3 4-4 4-1Z"/>
  <path fill="#cf260f" d="M48 29c7 18 20 24 38 16 5-2 10 0 14 4-16 7-30 7-42 0-6-4-11-10-14-18 1-3 4-4 4-2Z"/>
  <path fill="#0b1320" d="M17 78c20 12 57 17 113 14 4 0 7 2 8 6H57c-11 0-19-2-25-7L17 78Z"/>
  <path fill="#0b1320" d="M42 62c-9 1-17 2-25 4 7-7 14-15 20-25l23 16c-5 3-11 5-18 5Z" opacity=".28"/>
  <path fill="none" stroke="#0b1320" stroke-linecap="round" stroke-width="4" d="m63 65 30-12m-21 20 28-10m-15 16 23-7"/>
  <path fill="none" stroke="#f13a1f" stroke-linecap="round" stroke-width="7" d="M4 61h27M2 78h23M18 47h27"/>
  <path fill="none" stroke="#ff7656" stroke-linecap="round" stroke-width="4" d="M77 86c15 5 31 7 47 5"/>
</svg>
